<?xml version="1.0" encoding="utf-8"?>
<!-- Generator: Adobe Illustrator 18.0.0, SVG Export Plug-In . SVG Version: 6.00 Build 0)  -->
<!DOCTYPE svg PUBLIC "-//W3C//DTD SVG 1.1//EN" "http://www.w3.org/Graphics/SVG/1.1/DTD/svg11.dtd">
<svg version="1.1" id="Layer_1" xmlns="http://www.w3.org/2000/svg" xmlns:xlink="http://www.w3.org/1999/xlink" x="0px" y="0px"
	 viewBox="0 0 144 162" enable-background="new 0 0 144 162" xml:space="preserve">
<g>
	<path fill="#E6E7E8" d="M143,1v160H1V1H143 M144,0H0v162h144V0L144,0z"/>
</g>
<g>
	<text transform="matrix(4.489659e-11 -1 1 4.489659e-11 30 93)" font-family="'Georgia'" font-size="11"># restaurants </text>
</g>
<g>
	<text transform="matrix(1 0 0 1 48 102)" font-family="'Georgia'" font-size="11">category</text>
</g>
<g>
	<line fill="none" stroke="#000000" stroke-miterlimit="10" x1="108" y1="90" x2="36" y2="90"/>
	<line fill="none" stroke="#000000" stroke-miterlimit="10" x1="36" y1="21" x2="36" y2="90"/>
</g>
<g>
	<text transform="matrix(1 0 0 1 23.8296 126)"><tspan x="0" y="0" font-family="'Georgia'" font-size="14">Drag over charts</tspan><tspan x="24.7" y="18" font-family="'Georgia'" font-size="14"> to filter.</tspan></text>
</g>
<g>
	<g>
		<line fill="none" stroke="#000000" stroke-miterlimit="10" x1="73.1" y1="45" x2="97.9" y2="45"/>
		<g>
			<polygon points="76.4,49.1 77.1,48.4 73.5,45 77.1,41.6 76.4,40.9 72,45 			"/>
		</g>
		<g>
			<polygon points="94.6,49.1 93.9,48.4 97.5,45 93.9,41.6 94.6,40.9 99,45 			"/>
		</g>
	</g>
</g>
<g>
	<text transform="matrix(1 0 0 1 75 63)" font-family="'Georgia-Italic'" font-size="11">drag</text>
</g>
</svg>
